<svg width="411.4799926757812" height="166.26339863059818" viewBox="0 0 160 64.64990826870269" class="looka-1j8o68f">
    <defs id="SvgjsDefs2012">
        <linearGradient id="SvgjsLinearGradient2017">
            <stop id="SvgjsStop2018" stop-color="#b98947" offset="0"></stop>
            <stop id="SvgjsStop2019" stop-color="#faf0a1" offset="1"></stop>
        </linearGradient>
        <linearGradient id="SvgjsLinearGradient2020">
            <stop id="SvgjsStop2021" stop-color="#b98947" offset="0"></stop>
            <stop id="SvgjsStop2022" stop-color="#faf0a1" offset="1"></stop>
        </linearGradient>
    </defs>
    <g id="SvgjsG2013" featurekey="2ou6gm-0" transform="matrix(0.10666665798611182,0,0,0.10666665798611182,-7.306666072048659,5.693333927951341)" fill="url(#SvgjsLinearGradient2017)">
        <g xmlns="http://www.w3.org/2000/svg">
            <path d="M136.3,349.2L287,198.4c-7.1-2.6-12.3-9.4-12.3-17.4c0-10.4,8.4-18.8,18.8-18.8c8.1,0,14.8,5.1,17.4,12.3l20.4-20.4   c-3.3-2.8-6.5-5.6-10-8.1l26.1-63.2l-34.7-14.3l-25.2,61.1c-10.1-3-20.7-4.8-31.6-4.8c-10.9,0-21.5,1.8-31.6,4.8l-25.2-61.1   l-34.7,14.3l26.1,63.2c-18.7,13.1-34.3,31.6-45.7,53.7H87.3v37.5h43.5c-3,12-4.8,24.5-5.5,37.5H68.5v37.5h58.4   C128.8,325.2,132,337.5,136.3,349.2z M218.5,162.2c10.4,0,18.8,8.4,18.8,18.8c0,10.4-8.4,18.8-18.8,18.8s-18.8-8.4-18.8-18.8   C199.8,170.6,208.1,162.2,218.5,162.2z"></path>
            <path d="M443.5,95.1L95.1,443.5h53l30.7-30.7c21.7,19.2,48.3,30.7,77.1,30.7c40.1,0,75.9-21.9,100-56.3h68.8v-37.5h-49.2   c4.4-11.8,7.6-24.4,9.6-37.5h58.4v-37.5h-56.8c-0.6-13-2.4-25.5-5.5-37.5h43.5v-37.5h-32.8l51.6-51.6V95.1z"></path>
        </g>
    </g>
    <g id="SvgjsG2014" featurekey="kZnDdN-0" transform="matrix(4.243679379325629,0,0,4.243679379325629,57.182026768735305,-21.218396896628143)" fill="url(#SvgjsLinearGradient2020)">
        <path d="M8.5742 5 l2.8125 0 l0 15 l-2.666 0 l-0.068359 -1.3086 c-0.57617 0.98633 -1.7871 1.543 -3.1543 1.543 c-2.6465 0 -4.834 -1.9531 -4.834 -5.2344 s2.1973 -5.2344 4.834 -5.2344 c1.3184 0 2.4805 0.49805 3.0762 1.4063 l0 -6.1719 z M6.1426 17.9004 c1.4941 0 2.6563 -1.1426 2.6563 -2.9004 s-1.1719 -2.9102 -2.6563 -2.9102 c-1.4941 0 -2.666 1.1035 -2.666 2.9102 c0 1.7969 1.1719 2.9004 2.666 2.9004 z M21.415996874999998 5 l2.8125 0 l0 15 l-2.666 0 l-0.068359 -1.3086 c-0.57617 0.98633 -1.7871 1.543 -3.1543 1.543 c-2.6465 0 -4.834 -1.9531 -4.834 -5.2344 s2.1973 -5.2344 4.834 -5.2344 c1.3184 0 2.4805 0.49805 3.0762 1.4063 l0 -6.1719 z M18.984396875 17.9004 c1.4941 0 2.6563 -1.1426 2.6563 -2.9004 s-1.1719 -2.9102 -2.6563 -2.9102 c-1.4941 0 -2.666 1.1035 -2.666 2.9102 c0 1.7969 1.1719 2.9004 2.666 2.9004 z"></path>
    </g>
</svg>